<mxfile host="app.diagrams.net" modified="2024-07-05T06:23:49.670Z" agent="Mozilla/5.0 (Windows NT 10.0; Win64; x64) AppleWebKit/537.36 (KHTML, like Gecko) Chrome/126.0.0.0 Safari/537.36" version="24.6.4" etag="jqYKmxHfEsR2fQCVu2j5" type="github">
  <diagram name="หน้า-1" id="N1JgyoNwKWGeR5fN5Cio">
    <mxGraphModel>
      <root>
        <mxCell id="0" />
        <mxCell id="1" parent="0" />
      </root>
    </mxGraphModel>
  </diagram>
</mxfile>
